<?xml version="1.0" encoding="UTF-8" standalone="no"?>
<!-- Created with Inkscape (http://www.inkscape.org/) -->

<svg
   xmlns:dc="http://purl.org/dc/elements/1.1/"
   xmlns:cc="http://creativecommons.org/ns#"
   xmlns:rdf="http://www.w3.org/1999/02/22-rdf-syntax-ns#"
   xmlns:svg="http://www.w3.org/2000/svg"
   xmlns="http://www.w3.org/2000/svg"
   xmlns:sodipodi="http://sodipodi.sourceforge.net/DTD/sodipodi-0.dtd"
   xmlns:inkscape="http://www.inkscape.org/namespaces/inkscape"
   width="128"
   height="128"
   id="svg2986"
   version="1.1"
   inkscape:version="0.48.1 "
   sodipodi:docname="New document 1">
  <defs
     id="defs2988" />
  <sodipodi:namedview
     id="base"
     pagecolor="#ffffff"
     bordercolor="#666666"
     borderopacity="1.0"
     inkscape:pageopacity="1"
     inkscape:pageshadow="2"
     inkscape:zoom="3.6204918"
     inkscape:cx="72.857143"
     inkscape:cy="72.031283"
     inkscape:document-units="px"
     inkscape:current-layer="layer1"
     showgrid="true"
     inkscape:window-width="991"
     inkscape:window-height="768"
     inkscape:window-x="22"
     inkscape:window-y="22"
     inkscape:window-maximized="0">
    <inkscape:grid
       type="xygrid"
       id="grid2994"
       empspacing="1"
       visible="true"
       enabled="true"
       snapvisiblegridlinesonly="true"
       spacingx="16px"
       spacingy="16px" />
  </sodipodi:namedview>
  <metadata
     id="metadata2991">
    <rdf:RDF>
      <cc:Work
         rdf:about="">
        <dc:format>image/svg+xml</dc:format>
        <dc:type
           rdf:resource="http://purl.org/dc/dcmitype/StillImage" />
        <dc:title></dc:title>
      </cc:Work>
    </rdf:RDF>
  </metadata>
  <g
     inkscape:label="Layer 1"
     inkscape:groupmode="layer"
     id="layer1"
     transform="translate(0,-924.36218)">
    <path
       style="fill:#ff0000;fill-opacity:1;stroke:none"
       d="m 128,988.36218 c 0,0 -20.39333,13.26002 -32,16.00002 -5.190661,1.2253 -16,0 -16,0 l -16,48 c 0,0 35.273797,-17.584 48,-32 7.89246,-8.9405 16,-32.00002 16,-32.00002 z"
       id="path3940"
       inkscape:connector-curvature="0"
       sodipodi:nodetypes="csccsc" />
    <path
       style="fill:#ff0000;fill-opacity:1;stroke:none"
       d="m 64,924.36218 c 0,0 30.226697,20.20688 32,32 4.82391,32.08075 -32,96.00002 -32,96.00002 0,0 -4.602988,-44.0101 0,-64.00002 4.602988,-19.98991 18.411953,-15.95963 16,-32 -1.773303,-11.79312 -16,-32 -16,-32"
       id="path3902"
       inkscape:connector-curvature="0"
       sodipodi:nodetypes="cscssc" />
    <path
       style="fill:#ff0000;fill-opacity:1;stroke:#ffffff;stroke-width:1px;stroke-linecap:butt;stroke-linejoin:miter;stroke-opacity:0"
       d="M 64,128 C 64,128 25.073609,117.6078 16,112 5.8553972,105.73029 0,80 0,80 c 0,0 26.666667,16 32,16 5.333333,0 16,0 16,0 z"
       id="path3002"
       inkscape:connector-curvature="0"
       transform="translate(0,924.36218)"
       sodipodi:nodetypes="cscscc" />
    <path
       style="fill:#ff7800;fill-opacity:1;stroke:#ffffff;stroke-width:0.70710700999999998px;stroke-linecap:butt;stroke-linejoin:miter;stroke-opacity:0"
       d="m 64,1052.3622 c 0,0 -29.194793,-6.9281 -36,-10.6667 -7.608452,-4.1798 -12,-21.3333 -12,-21.3333 0,0 20,10.6667 24,10.6667 4,0 12,0 12,0 z"
       id="path3002-7"
       inkscape:connector-curvature="0"
       sodipodi:nodetypes="cscscc" />
    <path
       style="fill:#ff0000;fill-opacity:1;stroke:none"
       d="m 16,48 c 0,0 -4.081957,22.145285 0,32 8.659138,20.90501 48,48 48,48 L 64,96 C 64,96 41.073609,85.607799 32,80 21.855397,73.730291 16,48 16,48 z"
       id="path3826"
       inkscape:connector-curvature="0"
       transform="translate(0,924.36218)"
       sodipodi:nodetypes="csccsc" />
    <path
       style="fill:#ff8000;fill-opacity:1;stroke:none"
       d="m 16,988.36218 c 0,0 -4.081958,17.71622 0,25.60002 8.659138,16.724 48,38.4 48,38.4 l 0,-25.6 c 0,0 -22.926392,-8.3138 -31.999999,-12.8 C 21.855397,1008.9464 16,988.36218 16,988.36218 z"
       id="path3826-0"
       inkscape:connector-curvature="0"
       sodipodi:nodetypes="csccsc" />
    <path
       style="fill:#ffff00;fill-opacity:1;stroke:none"
       d="m 32,1004.3622 c 0,0 -2.721306,13.2871 0,19.2 5.77276,12.543 32,28.8 32,28.8 l 0,-19.2 c 0,0 -15.284262,-6.2354 -21.333332,-9.6 C 35.903598,1019.8003 32,1004.3622 32,1004.3622 z"
       id="path3826-0-9"
       inkscape:connector-curvature="0"
       sodipodi:nodetypes="csccsc" />
    <path
       style="fill:#ff0000;fill-opacity:1;stroke:none"
       d="m 48,956.36218 c 0,0 2.040978,11.07264 0,16 -2.886379,6.96834 -14.79183,8.55492 -16,16 -3.820569,23.54342 32,64.00002 32,64.00002 0,0 10.20489,-55.36323 0,-80.00002 -2.88638,-6.96834 -16,-16 -16,-16 z"
       id="path3864"
       inkscape:connector-curvature="0"
       sodipodi:nodetypes="csscsc" />
    <path
       style="fill:#ff8300;fill-opacity:1;stroke:none"
       d="m 48,975.02885 c 0,0 2.040978,9.2272 0,13.33333 -2.886379,5.80695 -14.79183,7.1291 -16,13.33332 -3.820569,19.6195 32,53.3333 32,53.3333 0,0 10.20489,-46.136 0,-66.66662 -2.88638,-5.80695 -16,-13.33333 -16,-13.33333 z"
       id="path3864-4"
       inkscape:connector-curvature="0"
       sodipodi:nodetypes="csscsc" />
    <path
       style="fill:#ff8200;fill-opacity:1;stroke:none"
       d="m 64,940.36218 c 0,0 30.2267,17.68102 32,28 4.82391,28.07066 -32,84.00002 -32,84.00002 0,0 -4.602988,-38.5088 0,-56.00002 4.60299,-17.49117 18.41195,-13.96468 16,-28 -1.7733,-10.31898 -16,-28 -16,-28"
       id="path3902-8"
       inkscape:connector-curvature="0"
       sodipodi:nodetypes="cscssc" />
    <path
       style="fill:#ffff00;fill-opacity:1;stroke:none"
       d="m 48,988.36218 c 0,0 2.040978,7.68933 0,11.11111 -2.886379,4.83911 -14.79183,5.94091 -16,11.11111 -3.820569,16.3496 32,44.4444 32,44.4444 0,0 10.20489,-38.4467 0,-55.55551 -2.88638,-4.83913 -16,-11.11111 -16,-11.11111 z"
       id="path3864-4-8"
       inkscape:connector-curvature="0"
       sodipodi:nodetypes="csscsc" />
    <path
       style="fill:#ffff00;fill-opacity:1;stroke:#ffffff;stroke-width:0.40824865999999999px;stroke-linecap:butt;stroke-linejoin:miter;stroke-opacity:0"
       d="m 64,1052.3622 c 0,0 -19.463195,-3.4641 -24,-5.3334 -5.072301,-2.0899 -8,-10.6666 -8,-10.6666 0,0 13.333333,5.3333 16,5.3333 2.666667,0 8,0 8,0 z"
       id="path3002-7-4"
       inkscape:connector-curvature="0"
       sodipodi:nodetypes="cscscc" />
    <path
       style="fill:#ff8000;fill-opacity:1;stroke:none"
       d="m 112,1004.3622 c 0,0 -15.294997,9.945 -24,12 -3.892995,0.919 -12,0 -12,0 l -12,36 c 0,0 26.45535,-13.188 36,-24 5.91934,-6.7054 12,-24 12,-24 z"
       id="path3940-4"
       inkscape:connector-curvature="0"
       sodipodi:nodetypes="csccsc" />
    <path
       style="fill:#ffff00;fill-opacity:1;stroke:none"
       d="m 96,1020.3622 c 0,0 -10.196667,6.63 -16,8 -2.595327,0.6127 -8,0 -8,0 l -8,24 c 0,0 17.6369,-8.792 24,-16 3.946227,-4.4703 8,-16 8,-16 z"
       id="path3940-4-5"
       inkscape:connector-curvature="0"
       sodipodi:nodetypes="csccsc" />
    <path
       style="fill:#ffff00;fill-opacity:1;stroke:none"
       d="m 64,956.36218 c 0,0 30.2267,15.15516 32,24 4.82391,24.06052 -32,72.00002 -32,72.00002 0,0 -4.602988,-33.0076 0,-48 4.60299,-14.99246 18.41195,-11.96975 16,-24.00002 -1.7733,-8.84484 -16,-24 -16,-24"
       id="path3902-8-2"
       inkscape:connector-curvature="0"
       sodipodi:nodetypes="cscssc" />
  </g>
</svg>
