<?xml version="1.0" encoding="UTF-8" standalone="no"?>
<!-- Created with Inkscape (http://www.inkscape.org/) -->

<svg
   xmlns:dc="http://purl.org/dc/elements/1.1/"
   xmlns:cc="http://creativecommons.org/ns#"
   xmlns:rdf="http://www.w3.org/1999/02/22-rdf-syntax-ns#"
   xmlns:svg="http://www.w3.org/2000/svg"
   xmlns="http://www.w3.org/2000/svg"
   xmlns:sodipodi="http://sodipodi.sourceforge.net/DTD/sodipodi-0.dtd"
   xmlns:inkscape="http://www.inkscape.org/namespaces/inkscape"
   width="128"
   height="128"
   id="svg2"
   version="1.1"
   inkscape:version="0.48.1 "
   sodipodi:docname="sample_composite.svg"
   inkscape:export-filename="C:\Documents and Settings\Tarinaky\Desktop\sample_composite.png"
   inkscape:export-xdpi="90"
   inkscape:export-ydpi="90">
  <defs
     id="defs4" />
  <sodipodi:namedview
     id="base"
     pagecolor="#000000"
     bordercolor="#666666"
     borderopacity="1.0"
     inkscape:pageopacity="1"
     inkscape:pageshadow="2"
     inkscape:zoom="4.6433543"
     inkscape:cx="66.786998"
     inkscape:cy="63.481948"
     inkscape:document-units="px"
     inkscape:current-layer="layer1"
     showgrid="true"
     objecttolerance="10000"
     guidetolerance="10000"
     inkscape:window-width="1440"
     inkscape:window-height="853"
     inkscape:window-x="-4"
     inkscape:window-y="-4"
     inkscape:window-maximized="1">
    <inkscape:grid
       type="xygrid"
       id="grid2985"
       empspacing="1"
       visible="true"
       enabled="true"
       snapvisiblegridlinesonly="true"
       spacingx="8px"
       spacingy="8px" />
  </sodipodi:namedview>
  <metadata
     id="metadata7">
    <rdf:RDF>
      <cc:Work
         rdf:about="">
        <dc:format>image/svg+xml</dc:format>
        <dc:type
           rdf:resource="http://purl.org/dc/dcmitype/StillImage" />
        <dc:title></dc:title>
      </cc:Work>
    </rdf:RDF>
  </metadata>
  <g
     inkscape:label="Layer 1"
     inkscape:groupmode="layer"
     id="layer1"
     transform="translate(0,-924.36218)">
    <path
       style="fill:none;stroke:#ff0000;stroke-width:1px;stroke-linecap:butt;stroke-linejoin:miter;stroke-opacity:1"
       d="M 64,16 16,64 64,112 112,64 64,16"
       id="path2987"
       inkscape:connector-curvature="0"
       transform="translate(0,924.36218)" />
    <path
       sodipodi:type="arc"
       style="fill:none;fill-opacity:1;fill-rule:nonzero;stroke:#0000ff;stroke-width:1;stroke-miterlimit:4;stroke-opacity:1;stroke-dasharray:none"
       id="path3757"
       sodipodi:cx="64"
       sodipodi:cy="64"
       sodipodi:rx="48"
       sodipodi:ry="48"
       d="M 112,64 C 112,90.509668 90.509668,112 64,112 37.490332,112 16,90.509668 16,64 16,37.490332 37.490332,16 64,16 c 26.509668,0 48,21.490332 48,48 z"
       transform="translate(0,924.36218)"
       inkscape:export-filename="C:\Documents and Settings\Tarinaky\Desktop\ath3757.png"
       inkscape:export-xdpi="90"
       inkscape:export-ydpi="90" />
    <g
       id="layer1-4"
       inkscape:label="Layer 1"
       transform="matrix(0.75,0,0,0.75,24,243.09055)">
      <path
         transform="translate(0,924.36218)"
         inkscape:connector-curvature="0"
         id="path2985"
         d="M 64,80 80,48 96,80"
         style="fill:none;stroke:#ffffff;stroke-width:1.33333333;stroke-linecap:butt;stroke-linejoin:miter;stroke-opacity:1;stroke-miterlimit:4;stroke-dasharray:none" />
      <path
         sodipodi:nodetypes="csc"
         transform="translate(0,924.36218)"
         inkscape:connector-curvature="0"
         id="path3755"
         d="m 64,64 c 0,0 8.457528,16 16,16 7.542472,0 16,-16 16,-16"
         style="fill:none;stroke:#ffffff;stroke-width:1.33333333;stroke-linecap:butt;stroke-linejoin:miter;stroke-opacity:1;stroke-miterlimit:4;stroke-dasharray:none" />
    </g>
    <g
       id="layer1-5"
       inkscape:label="Layer 1">
      <path
         transform="translate(0,924.36218)"
         inkscape:connector-curvature="0"
         id="path2987-1"
         d="M 64,16 16,64 64,112 112,64 64,16"
         style="opacity:0;fill:none;stroke:#0000ff;stroke-width:1px;stroke-linecap:butt;stroke-linejoin:miter;stroke-opacity:1" />
      <path
         transform="translate(0,924.36218)"
         d="M 112,64 C 112,90.509668 90.509668,112 64,112 37.490332,112 16,90.509668 16,64 16,37.490332 37.490332,16 64,16 c 26.509668,0 48,21.490332 48,48 z"
         sodipodi:ry="48"
         sodipodi:rx="48"
         sodipodi:cy="64"
         sodipodi:cx="64"
         id="path3757-7"
         style="opacity:0;fill:none;stroke:#0000ff;stroke-width:3;stroke-miterlimit:4;stroke-opacity:1;stroke-dasharray:none"
         sodipodi:type="arc" />
      <path
         transform="translate(0,924.36218)"
         inkscape:connector-curvature="0"
         id="path3759"
         d="M 48,16 64,32 80,16"
         style="fill:none;stroke:#ffffff;stroke-width:1px;stroke-linecap:butt;stroke-linejoin:miter;stroke-opacity:1" />
      <path
         sodipodi:nodetypes="cscsc"
         transform="translate(0,924.36218)"
         inkscape:connector-curvature="0"
         id="path3761"
         d="m 32,80 c 0,0 8.457528,16 16,16 7.542472,0 16,-16 16,-16 0,0 8.457528,16 16,16 7.542472,0 16,-16 16,-16"
         style="fill:none;stroke:#ffffff;stroke-width:1px;stroke-linecap:butt;stroke-linejoin:miter;stroke-opacity:1" />
    </g>
    <g
       id="layer1-6"
       inkscape:label="Layer 1">
      <path
         sodipodi:nodetypes="ccscc"
         transform="translate(0,924.36218)"
         inkscape:connector-curvature="0"
         id="path2985-1"
         d="m 56,112 0,-48 c 0,0 0.457528,-16 8,-16 7.542472,0 8,16 8,16 l 0,48"
         style="fill:none;stroke:#ffffff;stroke-width:1px;stroke-linecap:butt;stroke-linejoin:miter;stroke-opacity:1" />
      <path
         transform="translate(0,924.36218)"
         inkscape:connector-curvature="0"
         id="path3755-4"
         d="m 64,48 0,64"
         style="fill:none;stroke:#ffffff;stroke-width:1px;stroke-linecap:butt;stroke-linejoin:miter;stroke-opacity:1" />
    </g>
    <g
       id="layer1-68"
       inkscape:label="Layer 1"
       transform="translate(-1.1836438e-6,-6.6094306e-6)">
      <text
         transform="matrix(-0.00689418,0.99997623,-0.99997623,-0.00689418,0,0)"
         sodipodi:linespacing="125%"
         id="text2985"
         y="-38.702881"
         x="972.11847"
         style="font-size:40px;font-style:normal;font-weight:normal;line-height:125%;letter-spacing:0px;word-spacing:0px;fill:#fffeff;fill-opacity:1;stroke:none;font-family:Sans"
         xml:space="preserve"><tspan
           y="-38.702881"
           x="972.11847"
           id="tspan2987"
           sodipodi:role="line">E</tspan></text>
    </g>
  </g>
</svg>
